# xmcd
#
# Track frame offsets:
#	150
#	14228
#	29162
#	42896
#	55694
#	69650
#	81521
#	93137
#	104558
#	117795
#	129413
#	143640
#	156559
#	169066
#	180752
#	193212
#	206359
#	219512
#	233152
#	246995
#	259078
#	269842
#	280997
#	293195
#	304048
#
# Disc length: 4203 seconds
#
# Revision: 2
# Processed by: cddbd v1.5.1PL2 Copyright (c) Steve Scherf et al.
# Submitted via: audiograbber 1.83.01
#
DISCID=7e106919
DTITLE=Jimmy Witherspoon - Confessin' The Blues
DYEAR=2000
DGENRE=Blues
TTITLE0=Confessin' The Blues
TTITLE1=Hard Working Man Blues
TTITLE2=Shipyard Woman Blues
TTITLE3=Ernestine
TTITLE4=Roll On Katy
TTITLE5=Voodoo Woman Blues
TTITLE6=I Want A Little Girl
TTITLE7=Bar Fly Blues
TTITLE8=Please Stop Playing These Blues, Boy
TTITLE9=All My Geets Are Gone
TTITLE10=Strange Woman Blues
TTITLE11=Wandering Gal
TTITLE12=Hey Mr Landlord
TTITLE13=Third Floor Blues
TTITLE14=Money's Getting Cheaper
TTITLE15=Skid Row Blues
TTITLE16=Ain't Nobody's Business (part 1)
TTITLE17=Ain't Nobody's Business (part 2)
TTITLE18=Backwater Blues
TTITLE19=Spoon Calls Hootie
TTITLE20=Call My Baby
TTITLE21=The New Look
TTITLE22=Big Heart
TTITLE23=Funny Style Baby
TTITLE24=Miss Clawdy B
EXTD=
EXTT0=
EXTT1=
EXTT2=
EXTT3=
EXTT4=
EXTT5=
EXTT6=
EXTT7=
EXTT8=
EXTT9=
EXTT10=
EXTT11=
EXTT12=
EXTT13=
EXTT14=
EXTT15=
EXTT16=
EXTT17=
EXTT18=
EXTT19=
EXTT20=
EXTT21=
EXTT22=
EXTT23=
EXTT24=
PLAYORDER=
